<?xml version="1.0" encoding="UTF-8" standalone="no"?>
<svg width="154px" height="111px" viewBox="0 0 154 111" version="1.1" xmlns="http://www.w3.org/2000/svg" xmlns:xlink="http://www.w3.org/1999/xlink">
    <!-- Generator: Sketch 47 (45396) - http://www.bohemiancoding.com/sketch -->
    <title>Logo white on White</title>
    <desc>Created with Sketch.</desc>
    <defs></defs>
    <g id="HAKHAKHAK.com" stroke="none" stroke-width="1" fill="none" fill-rule="evenodd">
        <g id="Logo-white-on-White" fill-rule="nonzero" fill="#FFFFFF">
            <g id="Logo-White" transform="translate(35.000000, 32.000000)">
                <path d="M8.36065574,20.4705882 L14.6311475,20.4705882 L14.6311475,28.9411765 L8.36065574,28.9411765 L8.36065574,46.5882353 L0,46.5882353 L0,0 L8.36065574,0 L8.36065574,20.4705882 Z" id="Combined-Shape"></path>
                <path d="M27.5365845,20.4705882 L22.1177121,20.4705882 L22.1177121,28.9411765 L33.5908524,28.9411765 L46.3109916,46.7380533 L56.6982827,46.8286545 L22.1177121,0.118541447 L22.1177121,12.8889884 L27.5365845,20.4705882 Z" id="Combined-Shape"></path>
                <path d="M57.1311475,16.3973606 L57.1311475,0 L48.7704918,0 L48.7704918,46.5882353 L57.1311475,46.5882353 L57.1311475,26.8807988 L59.7370703,30.1433162 L73.1349558,46.3939412 L82.7587891,46.3939412 L65.7441035,25.8416801 L83.7337526,0 L74.2986219,0 L60.5233312,20.0424375 L57.1311475,16.3973606 Z" id="Combined-Shape"></path>
            </g>
        </g>
    </g>
</svg>